<?xml version="1.0" encoding="utf-8"?>
<!-- Generator: Adobe Illustrator 22.0.0, SVG Export Plug-In . SVG Version: 6.00 Build 0)  -->
<svg version="1.1" id="Layer_1" xmlns="http://www.w3.org/2000/svg" xmlns:xlink="http://www.w3.org/1999/xlink" x="0px" y="0px"
	 viewBox="0 0 300 300" style="enable-background:new 0 0 300 300;" xml:space="preserve">
<style type="text/css">
	.st0{fill:#A8A8A8;}
	.st1{fill:#C0D6E2;}
	.st2{fill:#6B98AF;}
	.st3{fill:#4C5868;}
</style>
<path class="st0" d="M210,247.6"/>
<path class="st0" d="M210,247.6"/>
<g>
	<path class="st1" d="M69.1,193.4c0-0.2,0.1-0.4,0.2-0.6c0.1-0.2,0.3-0.2,0.6-0.2l6.7,0c0.2,0,0.4,0.1,0.6,0.2
		c0.2,0.1,0.3,0.3,0.3,0.6v25.1c0,0.5-0.3,0.8-0.8,0.8l-6.7,0c-0.5,0-0.8-0.3-0.8-0.8V193.4z"/>
	<path class="st1" d="M108.8,193.4c0-0.6,0.3-0.9,0.8-0.9H127c0.3,0,0.5,0.1,0.7,0.3c0.1,0.2,0.2,0.4,0.2,0.7v3.2
		c0,0.2-0.1,0.4-0.2,0.6c-0.2,0.2-0.4,0.3-0.7,0.3h-8.4v5.5h5.5c0.2,0,0.4,0,0.6,0.2s0.2,0.3,0.2,0.6v3.3c0,0.2-0.1,0.4-0.2,0.6
		c-0.1,0.2-0.3,0.3-0.6,0.3h-5.5v6.5h8.9c0.3,0,0.6,0.1,0.7,0.2c0.1,0.1,0.2,0.4,0.2,0.7v3.3c0,0.5-0.3,0.8-0.8,0.8h-17.8
		c-0.2,0-0.4-0.1-0.6-0.2s-0.2-0.3-0.2-0.6V193.4z"/>
	<path class="st2" d="M155.4,206c0,1.2-0.2,2.4-0.5,3.6c-0.3,1.1-0.8,2.2-1.4,3.2c-0.6,1-1.3,1.9-2.1,2.7c-0.8,0.8-1.7,1.5-2.7,2.1
		c-1,0.6-2.1,1-3.3,1.3c-1.2,0.3-2.4,0.5-3.6,0.5h-8.6c-0.2,0-0.4,0-0.6-0.1c-0.2-0.1-0.3-0.3-0.3-0.6v-25.1c0-0.6,0.3-0.8,0.8-0.8
		h8.6c1.9,0,3.7,0.3,5.3,1c1.7,0.7,3.1,1.6,4.3,2.8s2.2,2.6,2.9,4.2C155.1,202.3,155.4,204.1,155.4,206z"/>
	<path class="st2" d="M160.3,193.4c0-0.6,0.3-0.8,0.8-0.8h11c1.2,0,2.3,0.2,3.4,0.7s2,1.1,2.8,1.9c0.8,0.8,1.4,1.7,1.9,2.8
		c0.5,1.1,0.7,2.2,0.7,3.4c0,0.8-0.1,1.6-0.3,2.4c-0.2,0.8-0.5,1.5-1,2.1c-0.4,0.6-0.9,1.2-1.5,1.8c-0.6,0.5-1.2,1-1.9,1.3l4.7,9.2
		c0,0.1,0.1,0.2,0.1,0.4c0.1,0.1,0.1,0.2,0.1,0.4c0,0.4-0.2,0.5-0.6,0.5h-5.6c-0.4,0-0.7-0.2-0.9-0.7l-4.4-8.6c-0.2,0-0.4,0-0.6,0
		c-0.2,0,0.9,0,0.5,0c-0.4,0-0.9,0-1.5,0s0.4,0-0.6,0v8.5c0,0.5-0.3,0.8-0.8,0.8h-5.4c-0.2,0-0.4-0.1-0.6-0.2
		c-0.1-0.1-0.2-0.3-0.2-0.6V193.4z"/>
	<path class="st2" d="M216.4,193.4c0-0.6,0.3-0.8,0.8-0.8h10.2c1.2,0,2.3,0.2,3.3,0.7c1,0.5,1.9,1.1,2.6,1.9s1.3,1.7,1.7,2.7
		c0.4,1,0.6,2.1,0.6,3.2c0,1.1-0.2,2.1-0.6,3.2c-0.4,1-1,1.9-1.7,2.7c-0.7,0.8-1.6,1.4-2.6,1.9c-1,0.5-2.1,0.7-3.3,0.7h-3.2v8.9
		c0,0.5-0.3,0.8-0.8,0.8h-6.4c-0.5,0-0.8-0.3-0.8-0.8V193.4z"/>
	<path class="st1" d="M103.9,216.2l-0.2-0.4l0,0l-5.3-8.9c-0.2-0.4-0.2-0.8,0-1.2l5.3-9.9l0,0l0.1-0.2c0.1-0.1,0.1-0.3,0.1-0.4
		c0-0.2,0-0.3-0.1-0.4c-0.1-0.1-0.2-0.2-0.4-0.3c-1.1-0.8-2.3-1.3-3.6-1.7c-1.3-0.4-2.6-0.6-4.1-0.6c-1.3,0-2.5,0.2-3.7,0.5
		s-2.3,0.8-3.3,1.4c-1,0.6-1.9,1.3-2.8,2.2s-1.6,1.8-2.2,2.8c-0.6,1-1.1,2.1-1.4,3.3c-0.3,1.2-0.5,2.4-0.5,3.7
		c0,1.3,0.2,2.5,0.5,3.7c0.3,1.2,0.8,2.3,1.4,3.3c0.6,1,1.3,1.9,2.2,2.8s1.8,1.6,2.8,2.2c1,0.6,2.1,1.1,3.3,1.4s2.4,0.5,3.7,0.5
		c1.4,0,2.8-0.2,4.1-0.6c1.3-0.4,2.5-1,3.6-1.8c0.1-0.1,0.2-0.2,0.4-0.3c0.1-0.1,0.2-0.2,0.2-0.4C104,216.5,104,216.4,103.9,216.2z"
		/>
	<path class="st2" d="M211.3,202.3c-0.3-1.2-0.8-2.3-1.4-3.3c-0.6-1-1.3-2-2.2-2.8s-1.8-1.6-2.8-2.2c-1-0.6-2.1-1.1-3.3-1.4
		s-2.4-0.5-3.6-0.5c-1.3,0-2.5,0.2-3.7,0.5s-2.3,0.8-3.3,1.4c-1,0.6-1.9,1.3-2.8,2.2s-1.6,1.8-2.2,2.8c-0.6,1-1.1,2.1-1.4,3.3
		c-0.3,1.2-0.5,2.4-0.5,3.7c0,1.3,0.2,2.5,0.5,3.7s0.8,2.3,1.4,3.3c0.6,1,1.3,1.9,2.1,2.8c0.8,0.8,1.8,1.6,2.8,2.2
		c1,0.6,2.1,1.1,3.3,1.4s2.4,0.5,3.7,0.5c1.3,0,2.5-0.2,3.7-0.5s2.3-0.8,3.3-1.4c1-0.6,2-1.3,2.8-2.1c0.8-0.8,1.6-1.8,2.2-2.8
		c0.6-1,1.1-2.1,1.4-3.3s0.5-2.4,0.5-3.7C211.8,204.7,211.7,203.5,211.3,202.3z M205.5,206.2l-4.7,2l-2.4,7.3
		c-0.1,0.3-0.5,0.3-0.6,0l-2.4-7.2l-4.9-2.1c-0.2-0.1-0.2-0.5,0-0.6l4.9-2.1l2.4-7.2c0.1-0.3,0.5-0.3,0.6,0l2.4,7.3l4.7,2
		C205.7,205.8,205.7,206.1,205.5,206.2z"/>
</g>
<g>
	<path class="st3" d="M125.3,234.8L125.3,234.8L125.3,234.8c0-0.8-0.7-1.5-1.5-1.5h-5.4c-0.8,0-1.5,0.7-1.5,1.5s0.7,1.5,1.5,1.5h3.8
		h0h0l0,0v2.6c-0.9,0.7-2.1,1-3.3,1c0,0,0,0,0,0c-2.9,0-5.3-2.4-5.3-5.3c0-2.9,2.4-5.3,5.3-5.3c1.4,0,2.7,0.5,3.7,1.5
		c0.3,0.3,0.7,0.4,1,0.4c0.4,0,0.8-0.2,1.1-0.5c0.6-0.6,0.6-1.5,0-2.1c-1.6-1.5-3.6-2.3-5.8-2.3c-4.6,0-8.3,3.7-8.3,8.3
		c0,4.6,3.7,8.3,8.3,8.3h0l0,0c2.1,0,4.3-0.8,5.8-2.2c0,0,0,0,0,0c0,0,0,0,0,0c0,0,0.1-0.1,0.1-0.1c0,0,0,0,0,0
		c0-0.1,0.1-0.1,0.1-0.2c0,0,0,0,0-0.1c0,0,0-0.1,0-0.1c0,0,0,0,0,0c0,0,0,0,0,0c0-0.1,0.1-0.2,0.1-0.3c0,0,0,0,0,0.1c0,0,0,0,0-0.1
		c0,0,0,0,0,0c0,0,0,0,0,0c0,0,0,0,0-0.1c0,0,0-0.1,0-0.1c0,0,0,0,0-0.1L125.3,234.8z M125.2,240.2
		C125.2,240.1,125.2,240.1,125.2,240.2C125.2,240.1,125.2,240.1,125.2,240.2C125.2,240.1,125.2,240.1,125.2,240.2z"/>
	<path class="st3" d="M125.3,239.8C125.3,239.8,125.3,239.8,125.3,239.8C125.3,239.9,125.3,239.9,125.3,239.8
		C125.3,239.9,125.3,239.9,125.3,239.8z"/>
	<polygon class="st3" points="119,242.9 119,242.9 119,242.9 	"/>
	<path class="st3" d="M135.7,227.4C135.7,227.4,135.7,227.4,135.7,227.4c0,0,0-0.1-0.1-0.1c0,0,0,0,0,0c-0.1-0.1-0.1-0.2-0.2-0.2
		c0,0,0,0-0.1-0.1c-0.1-0.1-0.1-0.1-0.2-0.2c0,0-0.1,0-0.1-0.1c0,0,0,0,0,0c-0.1,0-0.2-0.1-0.3-0.1c0,0,0,0,0,0c-0.1,0-0.2,0-0.3,0
		c0,0,0,0,0,0c0,0,0,0-0.1,0c-0.1,0-0.2,0-0.3,0c0,0-0.1,0-0.1,0c-0.1,0-0.2,0.1-0.3,0.1c0,0-0.1,0-0.1,0.1c-0.1,0-0.1,0.1-0.2,0.1
		c0,0-0.1,0.1-0.1,0.1c-0.1,0.1-0.1,0.1-0.1,0.2c0,0,0,0.1-0.1,0.1c0,0,0,0,0,0.1l-6.6,13.1c-0.5,1,0.2,2.2,1.3,2.2
		c0.5,0,1.1-0.3,1.3-0.8l1.1-2.1l0,0h8.5h0l1.1,2.1c0.4,0.7,1.3,1,2,0.7c0.7-0.4,1-1.3,0.7-2L135.7,227.4z M135.8,228.4
		C135.8,228.4,135.8,228.4,135.8,228.4C135.8,228.4,135.8,228.4,135.8,228.4C135.8,228.4,135.8,228.4,135.8,228.4z M134.3,231.4
		l2.7,5.4h-5.4L134.3,231.4z M135.8,228.1C135.8,228.1,135.8,228.1,135.8,228.1C135.8,228,135.8,228,135.8,228.1
		C135.8,228,135.8,228.1,135.8,228.1z M135.8,227.7c0,0,0,0.1,0,0.1C135.8,227.7,135.8,227.7,135.8,227.7z"/>
	<path class="st3" d="M160.3,227.8c0,0,0-0.1,0-0.1c0,0,0-0.1,0-0.1c0,0,0-0.1-0.1-0.1c0,0,0,0,0,0c0,0,0-0.1-0.1-0.1
		c0,0-0.1-0.1-0.1-0.1c0,0-0.1-0.1-0.1-0.1c0,0-0.1-0.1-0.1-0.1c0,0,0,0-0.1-0.1c0,0,0,0,0,0c0,0,0,0,0,0c0,0,0,0-0.1,0c0,0,0,0,0,0
		c0,0-0.1,0-0.1-0.1c0,0-0.1,0-0.1,0c0,0-0.1,0-0.1,0c0,0,0,0-0.1,0c0,0-0.1,0-0.1,0c-0.1,0-0.1,0-0.2,0c0,0,0,0,0,0
		c0,0-0.1,0-0.1,0c-0.1,0-0.1,0-0.2,0c0,0,0,0,0,0c0,0-0.1,0-0.1,0c0,0-0.1,0-0.1,0c0,0-0.1,0-0.1,0.1c0,0-0.1,0-0.1,0.1
		c0,0,0,0,0,0c0,0,0,0,0,0c0,0,0,0-0.1,0.1c0,0-0.1,0.1-0.1,0.1c0,0,0,0,0,0c0,0,0,0.1-0.1,0.1c0,0,0,0-0.1,0.1l-5.3,7l-5.1-7
		c0,0,0,0-0.1-0.1c0,0-0.1-0.1-0.1-0.1c0,0-0.1-0.1-0.1-0.1c0,0-0.1-0.1-0.1-0.1c0,0-0.1,0-0.1-0.1c0,0-0.1,0-0.1-0.1
		c0,0-0.1,0-0.1,0c0,0-0.1,0-0.1,0c0,0,0,0,0,0c-0.1,0-0.1,0-0.2,0c0,0-0.1,0-0.1,0c0,0,0,0,0,0c-0.1,0-0.1,0-0.2,0c0,0-0.1,0-0.1,0
		c0,0,0,0-0.1,0c0,0-0.1,0-0.1,0c0,0-0.1,0-0.1,0c0,0-0.1,0-0.1,0.1c0,0,0,0,0,0c0,0-0.1,0-0.1,0.1c0,0,0,0,0,0c0,0,0,0,0,0
		c0,0,0,0-0.1,0.1c0,0-0.1,0.1-0.1,0.1c0,0,0,0,0,0c0,0,0,0,0,0c0,0,0,0.1-0.1,0.1c0,0-0.1,0.1-0.1,0.1c0,0,0,0.1-0.1,0.1
		c0,0,0,0,0,0.1c0,0,0,0.1,0,0.1c0,0,0,0.1,0,0.1c0,0,0,0.1,0,0.1c0,0.1,0,0.1,0,0.2c0,0,0,0.1,0,0.1v13.1c0,0.8,0.7,1.5,1.5,1.5
		c0.8,0,1.5-0.7,1.5-1.5v-8.5v0l3.6,4.9c0,0,0,0,0,0c0,0.1,0.1,0.1,0.2,0.2c0,0,0.1,0.1,0.1,0.1c0,0,0,0,0,0c0,0,0,0,0.1,0
		c0.1,0.1,0.1,0.1,0.2,0.1c0.5,0.3,1.2,0.2,1.7-0.3c0,0,0.1-0.1,0.1-0.1c0,0,0,0,0,0c0,0,0,0,0,0l3.9-5.1v0v8.6
		c0,0.8,0.7,1.5,1.5,1.5s1.5-0.7,1.5-1.5V228c0,0,0-0.1,0-0.1C160.3,227.9,160.3,227.8,160.3,227.8z"/>
	<path class="st3" d="M173.7,229.5c0.8,0,1.5-0.7,1.5-1.5s-0.7-1.5-1.5-1.5H165c-0.8,0-1.5,0.7-1.5,1.5v13.1c0,0.8,0.7,1.5,1.5,1.5
		h8.7c0.8,0,1.5-0.7,1.5-1.5s-0.7-1.5-1.5-1.5h-7.2v-3.5h5.9c0.8,0,1.5-0.7,1.5-1.5s-0.7-1.5-1.5-1.5h-5.9v-3.5H173.7z"/>
	<path class="st3" d="M189.3,238.2L189.3,238.2c0-0.4-0.2-0.8-0.4-1.1c-0.1-0.1-0.3-0.2-0.5-0.3s-0.4-0.1-0.6-0.1l0,0
		c0.2,0,0.4,0,0.6,0.1s0.3,0.2,0.5,0.3C189.1,237.4,189.3,237.8,189.3,238.2c0-1-0.4-2.5-2-3.6c-1-0.7-2.3-1.1-4.1-1.5c0,0,0,0,0,0
		c0,0,0,0,0,0c-2.9-0.6-2.9-1.7-2.8-2.5c0.1-0.9,0.9-1.4,2.8-1.3c0.1,0,0.2,0,0.2,0c0,0,0,0,0,0c0.8,0.1,1.8,0.4,3,1
		c0.7,0.4,1.6,0.1,2-0.6c0.4-0.7,0.1-1.6-0.6-2c-1.6-0.8-3-1.3-4.2-1.4c0,0,0,0,0,0c0,0,0,0,0,0c0,0,0,0,0,0c-0.3,0-0.5,0-0.8,0
		c-3.2,0-5.4,1.5-5.5,4.9c0,1.1,0.3,2.5,2.1,3.7c0.8,0.5,1.8,0.9,3.2,1.2c0,0,0,0,0,0c0,0,0,0,0,0c0,0,0,0,0,0c0,0,0,0,0,0
		c0,0,0,0,0,0c0,0,0,0,0,0c0,0,0,0,0,0c3.7,0.8,3.7,1.8,3.7,2.2c0,0,0,0,0,0c0,0,0,0,0,0c0,0.3-0.1,0.8-0.5,1.2
		c-0.5,0.5-1.3,0.7-2.3,0.7c-0.1,0-0.1,0-0.2,0c0,0,0,0,0,0c-1.8,0-3.1-0.7-4.2-1.5c-0.7-0.5-1.6-0.3-2.1,0.4
		c-0.5,0.7-0.3,1.6,0.4,2.1c1.4,0.9,3.2,1.9,5.8,2c0,0,0,0,0,0c0,0,0,0,0,0c0,0,0,0,0,0c0.1,0,0.2,0,0.2,0c2.3,0,3.7-0.8,4.4-1.6
		C188.8,240.7,189.3,239.5,189.3,238.2L189.3,238.2z M183.4,226.3C183.4,226.3,183.4,226.3,183.4,226.3
		C183.4,226.3,183.4,226.3,183.4,226.3C183.4,226.3,183.4,226.3,183.4,226.3z"/>
</g>
</svg>
