<?xml version="1.0" encoding="utf-8"?>
<!-- Generator: Adobe Illustrator 22.0.0, SVG Export Plug-In . SVG Version: 6.00 Build 0)  -->
<svg version="1.1" id="Layer_1" xmlns="http://www.w3.org/2000/svg" xmlns:xlink="http://www.w3.org/1999/xlink" x="0px" y="0px"
	 viewBox="0 0 300 102.7" style="enable-background:new 0 0 300 102.7;" xml:space="preserve">
<style type="text/css">
	.st0{fill:#C0D6E2;}
	.st1{fill:#6B98AF;}
	.st2{fill:#4F778E;}
	.st3{fill:#FFFFFF;}
	.st4{fill:#4C5868;}
</style>
<g>
	<path class="st0" d="M47.1,9.5L11.9,62.3c-0.4,0.5,0.1,1.2,0.7,1.1l34.7-7.6c0.6-0.1,1.1-0.7,1.1-1.3V9.9
		C48.4,9.2,47.5,8.9,47.1,9.5z"/>
	<path class="st1" d="M45,60.4l-33.1,7.3c-0.5,0.1-0.7,0.7-0.4,1.1L28,91.9c0.3,0.4,0.9,0.4,1.2-0.1l16.6-30.4
		C46.1,60.9,45.6,60.3,45,60.4z"/>
	<path class="st1" d="M53.6,55.7l34.7,7.6c0.6,0.1,1.1-0.5,0.7-1.1L53.8,9.5c-0.4-0.6-1.3-0.3-1.3,0.4v44.5
		C52.5,55,53,55.6,53.6,55.7z"/>
	<path class="st2" d="M89,67.7l-33.1-7.3c-0.6-0.1-1.1,0.5-0.8,1l16.6,30.4c0.2,0.5,0.9,0.5,1.2,0.1l16.5-23.1
		C89.7,68.4,89.5,67.8,89,67.7z"/>
	<path class="st2" d="M68.1,93.6l-17-31.1c-0.3-0.5-1-0.5-1.2,0l-17,31.1c-0.3,0.5,0.1,1,0.6,1h34C68,94.7,68.3,94.1,68.1,93.6z"/>
	<polygon class="st3" points="25.3,42.3 48.4,37.1 48.4,25.7 34.2,28.8 	"/>
	<polygon class="st3" points="20,50.3 48.4,43.9 48.4,40.4 22.7,46.2 	"/>
</g>
<g>
	<path class="st4" d="M120.9,76.6L120.9,76.6L120.9,76.6c0-0.9-0.7-1.7-1.7-1.7h-5.9c-0.9,0-1.7,0.7-1.7,1.7c0,0.9,0.7,1.7,1.7,1.7
		h4.2h0h0l0,0v2.9c-1,0.7-2.3,1.1-3.6,1.1c0,0,0,0,0,0c-3.2,0-5.8-2.6-5.8-5.8c0-3.2,2.6-5.8,5.8-5.8c1.5,0,2.9,0.6,4,1.6
		c0.3,0.3,0.7,0.5,1.1,0.5c0.4,0,0.9-0.2,1.2-0.5c0.6-0.7,0.6-1.7,0-2.3c-1.7-1.6-4-2.5-6.3-2.5c-5,0-9.1,4.1-9.1,9.1
		c0,5,4.1,9.1,9.1,9.1h0l0,0c2.3,0,4.7-0.9,6.3-2.4c0,0,0,0,0,0c0,0,0,0,0,0c0,0,0.1-0.1,0.1-0.1c0,0,0,0,0,0c0-0.1,0.1-0.1,0.1-0.2
		c0,0,0,0,0-0.1c0,0,0-0.1,0-0.1c0,0,0,0,0,0c0,0,0,0,0,0c0.1-0.1,0.1-0.2,0.1-0.3c0,0,0,0,0,0.1c0,0,0,0,0-0.1c0,0,0,0,0,0
		c0,0,0,0,0-0.1c0,0,0,0,0-0.1c0,0,0-0.1,0-0.1c0,0,0,0,0-0.1L120.9,76.6z M120.7,82.5C120.7,82.5,120.7,82.5,120.7,82.5
		c0-0.1,0-0.1,0-0.1C120.7,82.5,120.7,82.5,120.7,82.5z"/>
	<path class="st4" d="M120.8,82.2C120.8,82.2,120.8,82.2,120.8,82.2C120.8,82.2,120.8,82.2,120.8,82.2
		C120.8,82.2,120.8,82.2,120.8,82.2z"/>
	<polygon class="st4" points="113.9,85.6 113.9,85.6 113.9,85.6 	"/>
	<path class="st4" d="M132.3,68.5C132.3,68.5,132.3,68.6,132.3,68.5c0,0,0-0.1-0.1-0.1c0,0,0,0,0-0.1c-0.1-0.1-0.1-0.2-0.2-0.2
		c0,0,0,0-0.1-0.1c-0.1-0.1-0.1-0.1-0.2-0.2c0,0-0.1,0-0.1-0.1c0,0,0,0,0,0c-0.1-0.1-0.2-0.1-0.3-0.1c0,0,0,0,0,0
		c-0.1,0-0.2,0-0.4,0c0,0,0,0,0,0c0,0,0,0-0.1,0c-0.1,0-0.2,0-0.3,0c0,0-0.1,0-0.1,0c-0.1,0-0.2,0.1-0.3,0.1c0,0-0.1,0-0.1,0.1
		c-0.1,0-0.1,0.1-0.2,0.2c0,0-0.1,0.1-0.1,0.1c-0.1,0.1-0.1,0.1-0.2,0.2c0,0,0,0.1-0.1,0.1c0,0,0,0,0,0.1L122,82.8
		c-0.6,1.1,0.2,2.4,1.5,2.4c0.6,0,1.2-0.3,1.5-0.9l1.2-2.3l0,0h9.3h0l1.2,2.3c0.4,0.8,1.4,1.1,2.2,0.7c0.8-0.4,1.1-1.4,0.7-2.2
		L132.3,68.5z M132.4,69.6C132.4,69.6,132.4,69.6,132.4,69.6C132.4,69.6,132.4,69.6,132.4,69.6C132.4,69.6,132.4,69.6,132.4,69.6z
		 M130.8,72.9l3,5.9h-6L130.8,72.9z M132.4,69.3C132.4,69.3,132.4,69.2,132.4,69.3C132.4,69.2,132.4,69.2,132.4,69.3
		C132.4,69.2,132.4,69.2,132.4,69.3z M132.4,68.8c0,0,0,0.1,0,0.1C132.4,68.9,132.4,68.8,132.4,68.8z"/>
	<path class="st4" d="M159.4,69c0-0.1,0-0.1,0-0.2c0-0.1,0-0.1,0-0.2c0,0,0-0.1-0.1-0.1c0,0,0,0,0,0c0,0,0-0.1-0.1-0.1
		c0,0-0.1-0.1-0.1-0.1c0,0-0.1-0.1-0.1-0.1c0,0-0.1-0.1-0.1-0.1c0,0,0,0-0.1-0.1c0,0,0,0,0,0c0,0,0,0,0,0c0,0-0.1,0-0.1,0
		c0,0,0,0,0,0c0,0-0.1-0.1-0.1-0.1c0,0-0.1,0-0.1,0c0,0-0.1,0-0.1,0c0,0-0.1,0-0.1,0c0,0-0.1,0-0.1,0c-0.1,0-0.1,0-0.2,0
		c0,0,0,0,0,0c0,0-0.1,0-0.1,0c-0.1,0-0.1,0-0.2,0c0,0,0,0-0.1,0c0,0-0.1,0-0.1,0c-0.1,0-0.1,0-0.2,0c0,0-0.1,0-0.1,0.1
		c0,0-0.1,0-0.1,0.1c0,0,0,0,0,0c0,0,0,0,0,0c0,0-0.1,0-0.1,0.1c0,0-0.1,0.1-0.1,0.1c0,0,0,0,0,0c0,0-0.1,0.1-0.1,0.1
		c0,0,0,0-0.1,0.1l-5.9,7.7l-5.7-7.7c0,0-0.1-0.1-0.1-0.1c0,0-0.1-0.1-0.1-0.1c0,0-0.1-0.1-0.1-0.1c0,0-0.1-0.1-0.1-0.1
		c0,0-0.1-0.1-0.1-0.1c0,0-0.1,0-0.1-0.1c-0.1,0-0.1,0-0.2,0c0,0-0.1,0-0.1,0c0,0,0,0,0,0c-0.1,0-0.1,0-0.2,0c0,0-0.1,0-0.1,0
		c0,0,0,0,0,0c-0.1,0-0.1,0-0.2,0c0,0-0.1,0-0.1,0c0,0-0.1,0-0.1,0c0,0-0.1,0-0.1,0c0,0-0.1,0-0.1,0c0,0-0.1,0-0.1,0.1c0,0,0,0,0,0
		c0,0-0.1,0-0.1,0.1c0,0,0,0,0,0c0,0,0,0,0,0c0,0-0.1,0.1-0.1,0.1c0,0-0.1,0.1-0.1,0.1c0,0,0,0,0,0c0,0,0,0,0,0c0,0,0,0.1-0.1,0.1
		c0,0-0.1,0.1-0.1,0.1c0,0,0,0.1-0.1,0.1c0,0,0,0,0,0.1c0,0,0,0.1-0.1,0.1c0,0.1,0,0.1,0,0.2c0,0.1,0,0.1,0,0.2c0,0.1,0,0.1,0,0.2
		c0,0,0,0.1,0,0.1v14.4c0,0.9,0.7,1.7,1.7,1.7c0.9,0,1.7-0.7,1.7-1.7v-9.3v0l4,5.4c0,0,0,0,0,0c0.1,0.1,0.1,0.1,0.2,0.2
		c0,0,0.1,0.1,0.1,0.1c0,0,0,0,0,0c0,0,0,0,0.1,0c0.1,0.1,0.2,0.1,0.2,0.1c0.6,0.3,1.3,0.3,1.9-0.3c0,0,0.1-0.1,0.1-0.1c0,0,0,0,0,0
		c0,0,0,0,0,0l4.2-5.6v0v9.5c0,0.9,0.7,1.7,1.7,1.7s1.7-0.7,1.7-1.7V69.2c0,0,0-0.1,0-0.1C159.4,69.1,159.4,69,159.4,69z"/>
	<path class="st4" d="M174,70.9c0.9,0,1.7-0.7,1.7-1.7s-0.7-1.7-1.7-1.7h-9.6c-0.9,0-1.7,0.7-1.7,1.7v14.4c0,0.9,0.7,1.7,1.7,1.7
		h9.6c0.9,0,1.7-0.7,1.7-1.7c0-0.9-0.7-1.7-1.7-1.7h-7.9v-3.9h6.5c0.9,0,1.7-0.7,1.7-1.7c0-0.9-0.7-1.7-1.7-1.7h-6.5v-3.9H174z"/>
	<path class="st4" d="M191.2,80.4L191.2,80.4c0-0.5-0.2-0.9-0.5-1.2c-0.1-0.1-0.3-0.3-0.5-0.4s-0.4-0.1-0.6-0.1l0,0
		c0.2,0,0.4,0,0.6,0.1s0.4,0.2,0.5,0.4C191,79.6,191.2,80,191.2,80.4c0-1.1-0.4-2.8-2.2-4c-1.1-0.7-2.5-1.2-4.5-1.7c0,0,0,0,0,0
		c0,0,0,0,0,0c-3.2-0.7-3.2-1.9-3.1-2.8c0.1-1,0.9-1.5,3.1-1.4c0.1,0,0.2,0,0.3,0c0,0,0,0,0,0c0.9,0.1,2,0.4,3.3,1.1
		c0.8,0.4,1.8,0.1,2.2-0.7c0.4-0.8,0.1-1.8-0.7-2.2c-1.8-0.9-3.3-1.4-4.6-1.5c0,0,0,0,0,0c0,0,0,0,0,0c0,0,0,0,0,0
		c-0.3,0-0.6,0-0.8,0c-3.5,0-6,1.7-6.1,5.4c0,1.2,0.3,2.8,2.3,4c0.9,0.6,2,1,3.6,1.3c0,0,0,0,0,0c0,0,0,0,0,0c0,0,0,0,0,0
		c0,0,0,0,0,0c0,0,0,0,0,0c0,0,0,0,0,0c0,0,0,0,0,0c4.1,0.9,4.1,2,4.1,2.4c0,0,0,0,0,0c0,0,0,0,0,0c0,0.4-0.1,0.9-0.5,1.3
		c-0.5,0.5-1.4,0.8-2.6,0.8c-0.1,0-0.1,0-0.2,0c0,0,0,0,0,0c-2-0.1-3.4-0.8-4.7-1.6c-0.8-0.5-1.8-0.3-2.3,0.5
		c-0.5,0.8-0.3,1.8,0.5,2.3c1.6,1,3.6,2.1,6.4,2.2c0,0,0,0,0,0c0,0,0,0,0,0c0,0,0,0,0,0c0.1,0,0.2,0,0.3,0c2.6,0,4.1-0.9,4.9-1.7
		C190.6,83.1,191.2,81.8,191.2,80.4L191.2,80.4z M184.8,67.3C184.7,67.3,184.7,67.3,184.8,67.3C184.7,67.3,184.7,67.3,184.8,67.3
		C184.7,67.3,184.7,67.3,184.8,67.3z"/>
</g>
<g>
	<path class="st0" d="M105.1,31.6c0-0.2,0.1-0.4,0.2-0.6c0.1-0.2,0.4-0.3,0.6-0.3l7.4,0c0.2,0,0.4,0.1,0.6,0.2
		c0.2,0.2,0.3,0.4,0.3,0.6v27.6c0,0.6-0.3,0.9-0.9,0.9l-7.4,0c-0.6,0-0.9-0.3-0.9-0.9V31.6z"/>
	<path class="st0" d="M148.7,31.7c0-0.6,0.3-0.9,0.9-0.9h19c0.3,0,0.6,0.1,0.7,0.3c0.1,0.2,0.2,0.4,0.2,0.7v3.5
		c0,0.2-0.1,0.4-0.2,0.6c-0.2,0.2-0.4,0.3-0.7,0.3h-9.2v6h6c0.3,0,0.5,0,0.6,0.2c0.2,0.1,0.2,0.4,0.2,0.7v3.6c0,0.2-0.1,0.4-0.2,0.6
		c-0.1,0.2-0.3,0.3-0.6,0.3h-6v7.2h9.7c0.4,0,0.6,0.1,0.7,0.2c0.1,0.2,0.2,0.4,0.2,0.7v3.6c0,0.6-0.3,0.8-0.9,0.8h-19.5
		c-0.2,0-0.4-0.1-0.6-0.2c-0.2-0.1-0.3-0.3-0.3-0.6V31.7z"/>
	<path class="st1" d="M199.8,45.4c0,1.4-0.2,2.7-0.5,3.9c-0.4,1.3-0.9,2.4-1.5,3.5c-0.6,1.1-1.4,2.1-2.3,3c-0.9,0.9-1.9,1.6-3,2.3
		c-1.1,0.6-2.3,1.1-3.6,1.5c-1.3,0.3-2.6,0.5-4,0.5h-9.5c-0.2,0-0.4-0.1-0.6-0.2c-0.2-0.1-0.3-0.3-0.3-0.7V31.6
		c0-0.6,0.3-0.9,0.9-0.9h9.5c2.1,0,4,0.4,5.9,1.1c1.8,0.8,3.4,1.8,4.7,3.1s2.4,2.9,3.2,4.7C199.4,41.4,199.8,43.3,199.8,45.4z"/>
	<path class="st1" d="M205.1,31.6c0-0.6,0.3-0.9,0.9-0.9h12.1c1.3,0,2.6,0.3,3.7,0.8s2.2,1.2,3,2c0.9,0.9,1.5,1.9,2,3
		c0.5,1.2,0.7,2.4,0.7,3.7c0,0.9-0.1,1.8-0.4,2.6c-0.3,0.8-0.6,1.6-1,2.3c-0.4,0.7-1,1.4-1.6,1.9c-0.6,0.6-1.3,1.1-2.1,1.5l5.1,10.1
		c0,0.1,0.1,0.3,0.1,0.4c0.1,0.1,0.1,0.3,0.1,0.4c0,0.4-0.2,0.6-0.7,0.6h-6.1c-0.5,0-0.8-0.2-0.9-0.7l-4.8-9.5c-0.2,0-0.4,0-0.7,0
		c-0.2,0,1,0,0.6,0c-0.4,0-1,0-1.7,0c-0.7,0,0.4,0-0.7,0v9.3c0,0.6-0.3,0.8-0.9,0.8H206c-0.3,0-0.5-0.1-0.6-0.2
		c-0.2-0.1-0.2-0.4-0.2-0.6V31.6z"/>
	<path class="st1" d="M266.5,31.6c0-0.6,0.3-0.9,0.9-0.9h11.2c1.3,0,2.6,0.3,3.7,0.8c1.1,0.5,2.1,1.2,2.9,2.1c0.8,0.9,1.4,1.9,1.9,3
		c0.4,1.1,0.7,2.3,0.7,3.5c0,1.2-0.2,2.4-0.7,3.5c-0.4,1.1-1.1,2.1-1.9,3c-0.8,0.9-1.7,1.6-2.9,2.1c-1.1,0.5-2.3,0.8-3.6,0.8h-3.5
		v9.8c0,0.6-0.3,0.8-0.9,0.8h-7c-0.6,0-0.9-0.3-0.9-0.8V31.6z"/>
	<path class="st0" d="M143.3,56.6l-0.2-0.4l0,0l-5.8-9.7c-0.2-0.4-0.2-0.9,0-1.3l5.8-10.8l0,0l0.2-0.3c0.1-0.2,0.1-0.3,0.1-0.5
		c0-0.2-0.1-0.3-0.2-0.5c-0.1-0.1-0.2-0.2-0.4-0.3c-1.2-0.8-2.6-1.5-4-1.9c-1.4-0.4-2.9-0.7-4.5-0.7c-1.4,0-2.7,0.2-4,0.5
		c-1.3,0.4-2.5,0.9-3.6,1.5c-1.1,0.7-2.1,1.4-3,2.4s-1.7,1.9-2.4,3.1c-0.7,1.1-1.2,2.3-1.5,3.6c-0.4,1.3-0.5,2.6-0.5,4
		c0,1.4,0.2,2.7,0.5,4c0.4,1.3,0.9,2.5,1.5,3.6c0.7,1.1,1.4,2.1,2.4,3s1.9,1.7,3,2.4c1.1,0.7,2.3,1.2,3.6,1.5c1.3,0.4,2.6,0.5,4,0.5
		c1.6,0,3.1-0.2,4.5-0.7c1.4-0.5,2.8-1.1,4-1.9c0.1-0.1,0.3-0.2,0.4-0.3c0.1-0.1,0.2-0.3,0.2-0.5C143.4,56.9,143.4,56.8,143.3,56.6z
		"/>
	<path class="st1" d="M261,41.4c-0.4-1.3-0.9-2.5-1.5-3.6c-0.7-1.1-1.4-2.1-2.4-3.1s-1.9-1.7-3.1-2.4c-1.1-0.7-2.3-1.2-3.6-1.5
		c-1.3-0.4-2.6-0.5-4-0.5c-1.4,0-2.7,0.2-4,0.5c-1.3,0.4-2.5,0.9-3.6,1.5c-1.1,0.7-2.1,1.4-3,2.4s-1.7,1.9-2.4,3.1
		c-0.7,1.1-1.2,2.3-1.5,3.6c-0.4,1.3-0.5,2.6-0.5,4c0,1.4,0.2,2.7,0.5,4c0.4,1.3,0.9,2.5,1.5,3.6c0.7,1.1,1.4,2.1,2.3,3
		c0.9,0.9,1.9,1.7,3,2.4c1.1,0.7,2.3,1.2,3.6,1.5c1.3,0.4,2.6,0.5,4,0.5c1.4,0,2.7-0.2,4-0.5c1.3-0.4,2.5-0.9,3.6-1.5
		c1.1-0.7,2.1-1.4,3.1-2.3c0.9-0.9,1.7-1.9,2.4-3c0.7-1.1,1.2-2.3,1.5-3.6c0.4-1.3,0.5-2.6,0.5-4C261.6,44,261.4,42.7,261,41.4z
		 M254.6,45.7l-5.2,2.2l-2.6,8c-0.1,0.3-0.5,0.3-0.6,0l-2.6-7.9l-5.4-2.3c-0.3-0.1-0.3-0.5,0-0.6l5.4-2.3l2.6-7.9
		c0.1-0.3,0.5-0.3,0.6,0l2.6,8l5.2,2.2C254.9,45.2,254.9,45.5,254.6,45.7z"/>
</g>
</svg>
